<svg width="7488" height="7488" viewBox="0 0 7488 7488" fill="none" xmlns="http://www.w3.org/2000/svg">
<path d="M5288.12 3620.8C5288.12 3620.8 5321.46 3565.57 5543.78 3170.58C5962.16 2433.85 5509.04 2033.33 5393.19 1231.22C5350.72 936.519 5275.6 626.102 5094.76 841.597C4794.65 1198.74 4943.34 1521.15 5041.72 1817.77C4931.13 1570.94 4828.51 1490.34 4763.67 1547.45C4641.74 1657.09 4620.44 2021.33 4768.42 2425.9C4768.42 2425.9 4633.84 2180.98 4530.94 2250.96C4337.54 2386.56 4428.13 2802.4 4630.43 3019.47C4851.9 3257.28 4913.72 3446.45 4907.64 3547.84C4903.17 3696.44 5258.84 3652.73 5288.12 3620.8Z" fill="url(#paint0_linear_1808_24)"/>
<path d="M6006.7 4190.54C6034.25 5226.79 5103.95 5834.51 3952.52 5863.43C2801.09 5892.34 1863.32 5336.93 1835.77 4300.68C1808.21 3264.43 2765.18 2480.03 3917.51 2478.94C4712.88 2478.67 5979.37 3153.41 6006.7 4190.54Z" fill="white"/>
<path d="M4376.13 4529.97C4376.13 4529.97 4547.61 4947.48 4628.41 4774.15C4667.92 4681.45 4703.52 4565.14 4726.05 4488.56C4726.05 4488.56 4886.55 4847.62 4984.68 4715.15C5082.81 4582.68 5028.84 4357.13 5028.84 4357.13" stroke="#AD6EF9" stroke-width="93.12" stroke-linecap="round" stroke-linejoin="round"/>
<path d="M2961.13 4245.53C2961.13 4245.53 2941.44 4184.43 2793.87 3754.23C2518.99 2952.75 1917.12 3023.78 1238.6 2576.27C989.373 2412.41 707.612 2261.86 747.485 2539.06C818.029 3000.38 1156.53 3103.46 1444.12 3229.28C1185.67 3147.77 1056.74 3170.48 1056.46 3256.5C1056.25 3421.6 1316.77 3677.68 1718.52 3836.94C1718.52 3836.94 1445.43 3774.2 1431.32 3896.03C1403.7 4130.03 1776.22 4339.47 2072.2 4332.65C2399.24 4325.7 2580.88 4406.1 2653.47 4479.13C2760.56 4580.98 2964.75 4288.55 2961.13 4245.53Z" fill="url(#paint1_linear_1808_24)"/>
<path d="M5459.63 4278.92C5590.87 4311.99 5724.23 4232.9 5757.49 4102.27C5790.75 3971.63 5711.33 3838.92 5580.09 3805.85C5448.85 3772.78 5315.49 3851.86 5282.23 3982.5C5248.97 4113.13 5328.39 4245.84 5459.63 4278.92Z" fill="#003451"/>
<ellipse cx="522.157" cy="220.572" rx="522.157" ry="220.572" transform="matrix(-0.91857 -0.395258 -0.39873 0.917068 5161.29 2738.42)" fill="white"/>
<ellipse cx="522.475" cy="220.436" rx="522.475" ry="220.436" transform="matrix(-0.980071 -0.198646 -0.200636 0.979666 4317.25 2426.55)" fill="white"/>
<ellipse cx="522.475" cy="220.436" rx="522.475" ry="220.436" transform="matrix(-0.980071 -0.198646 -0.200636 0.979666 3483.11 2444.66)" fill="white"/>
<ellipse cx="522.475" cy="220.436" rx="522.475" ry="220.436" transform="matrix(-0.980071 -0.198646 -0.200636 0.979666 3305.08 2797.29)" fill="white"/>
<path d="M3344.74 4431.7C3405.73 4446.34 3664.69 4545.55 3882.12 4613.79L3390.2 4850.74" stroke="#003451" stroke-width="141" stroke-linecap="round" stroke-linejoin="round"/>
<defs>
<linearGradient id="paint0_linear_1808_24" x1="5511.24" y1="844.886" x2="4818.27" y2="3594.69" gradientUnits="userSpaceOnUse">
<stop stop-color="#AD6EF9"/>
<stop offset="1" stop-color="#7E60F3"/>
</linearGradient>
<linearGradient id="paint1_linear_1808_24" x1="2025.16" y1="2679.68" x2="1630.14" y2="4247.15" gradientUnits="userSpaceOnUse">
<stop stop-color="#AD6EF9"/>
<stop offset="1" stop-color="#7E60F3"/>
</linearGradient>
</defs>
</svg>
